PathFileType	4	(X/Y/Z) flx_2kg_2.trc																										
DataRate	CameraRate	NumFrames	NumMarkers	Units	OrigDataRate	OrigDataStartFrame	OrigNumFrames																					
100	100	29	9	mm	100	1	821																					
Frame#	Time	gu			centelbow			EpL			centpxt8			centijc7			ij			ts			aa			ai		
		X1	Y1	Z1	X2	Y2	Z2	X3	Y3	Z3	X4	Y4	Z4	X5	Y5	Z5	X6	Y6	Z6	X7	Y7	Z7	X8	Y8	Z8	X9	Y9	Z9  
0	0	-79.287	-19.084	164.826	-134.504	-259.135	182.461	-118.661	-256.617	210.427	-46.816	-153.158	-8.669	-46.816	31.938	-8.669	0	0	0	-135.118	29.943	53.246	-106.17	18.569	168.387	-154.649	-81.877	52.509
1	0.01	-79.157	-19.068	164.768	-134.364	-259.122	182.394	-118.524	-256.603	210.361	-46.816	-153.158	-8.669	-46.816	31.938	-8.669	0	0	0	-134.92	29.955	53.264	-105.962	18.582	168.402	-154.429	-81.868	52.524
2	0.02	-79.034	-18.97	164.655	-134.211	-259.031	182.28	-118.372	-256.51	210.247	-46.816	-153.158	-8.669	-46.816	31.938	-8.669	0	0	0	-134.664	30.061	53.204	-105.695	18.69	168.34	-154.15	-81.766	52.461
3	0.03	-78.962	-18.885	164.471	-134.109	-258.951	182.119	-118.265	-256.427	210.083	-46.816	-153.158	-8.669	-46.816	31.938	-8.669	0	0	0	-134.439	30.14	53.131	-105.457	18.765	168.263	-153.926	-81.687	52.387
4	0.04	-78.948	-18.9	164.345	-134.084	-258.966	182.026	-118.232	-256.44	209.986	-46.816	-153.158	-8.669	-46.816	31.938	-8.669	0	0	0	-134.375	30.095	53.177	-105.385	18.712	168.306	-153.884	-81.728	52.432
5	0.05	-78.979	-18.942	164.346	-134.102	-259.01	182.046	-118.247	-256.481	210.004	-46.816	-153.158	-8.669	-46.816	31.938	-8.669	0	0	0	-134.526	30.044	53.323	-105.538	18.662	168.453	-154.048	-81.777	52.582
6	0.06	-79.022	-18.944	164.355	-134.125	-259.015	182.064	-118.272	-256.484	210.023	-46.816	-153.158	-8.669	-46.816	31.938	-8.669	0	0	0	-134.784	30.088	53.413	-105.798	18.718	168.545	-154.302	-81.734	52.682
7	0.07	-79.064	-18.965	164.278	-134.167	-259.037	181.992	-118.313	-256.505	209.951	-46.816	-153.158	-8.669	-46.816	31.938	-8.669	0	0	0	-134.911	30.105	53.404	-105.921	18.736	168.534	-154.433	-81.716	52.676
8	0.08	-79.142	-19.044	164.235	-134.266	-259.11	181.945	-118.411	-256.581	209.903	-46.816	-153.158	-8.669	-46.816	31.938	-8.669	0	0	0	-134.827	29.985	53.373	-105.836	18.59	168.501	-154.375	-81.832	52.628
9	0.09	-79.208	-19.106	164.334	-134.348	-259.17	182.028	-118.494	-256.643	209.987	-46.816	-153.158	-8.669	-46.816	31.938	-8.669	0	0	0	-134.687	29.821	53.338	-105.693	18.398	168.463	-154.258	-81.991	52.572
10	0.1	-79.157	-19.083	164.485	-134.302	-259.147	182.161	-118.452	-256.622	210.122	-46.816	-153.158	-8.669	-46.816	31.938	-8.669	0	0	0	-134.593	29.766	53.295	-105.593	18.337	168.418	-154.166	-82.046	52.526
11	0.11	-79.032	-19.018	164.557	-134.191	-259.079	182.234	-118.342	-256.554	210.196	-46.816	-153.158	-8.669	-46.816	31.938	-8.669	0	0	0	-134.562	29.82	53.267	-105.559	18.403	168.39	-154.129	-81.993	52.507
12	0.12	-78.963	-19.007	164.512	-134.161	-259.057	182.213	-118.307	-256.533	210.172	-46.816	-153.158	-8.669	-46.816	31.938	-8.669	0	0	0	-134.637	29.876	53.258	-105.64	18.468	168.383	-154.215	-81.936	52.509
13	0.13	-78.972	-19.036	164.384	-134.202	-259.076	182.118	-118.339	-256.553	210.072	-46.816	-153.158	-8.669	-46.816	31.938	-8.669	0	0	0	-134.793	29.878	53.272	-105.8	18.471	168.398	-154.391	-81.93	52.528
14	0.14	-78.973	-19.026	164.256	-134.188	-259.068	182.014	-118.315	-256.544	209.962	-46.816	-153.158	-8.669	-46.816	31.938	-8.669	0	0	0	-134.879	29.849	53.26	-105.875	18.437	168.383	-154.488	-81.957	52.516
15	0.15	-78.912	-19.018	164.194	-134.098	-259.065	181.971	-118.219	-256.538	209.915	-46.816	-153.158	-8.669	-46.816	31.938	-8.669	0	0	0	-134.832	29.847	53.14	-105.801	18.429	168.255	-154.429	-81.961	52.393
16	0.16	-78.847	-19.098	164.164	-134.06	-259.138	181.955	-118.178	-256.612	209.898	-46.816	-153.158	-8.669	-46.816	31.938	-8.669	0	0	0	-134.736	29.896	52.954	-105.676	18.475	168.063	-154.313	-81.915	52.203
17	0.17	-78.866	-19.202	164.086	-134.142	-259.228	181.873	-118.258	-256.707	209.815	-46.816	-153.158	-8.669	-46.816	31.938	-8.669	0	0	0	-134.666	29.959	52.833	-105.594	18.537	167.938	-154.229	-81.854	52.079
18	0.18	-78.95	-19.201	163.99	-134.253	-259.223	181.749	-118.366	-256.707	209.691	-46.816	-153.158	-8.669	-46.816	31.938	-8.669	0	0	0	-134.671	30.044	52.786	-105.597	18.623	167.891	-154.225	-81.772	52.03
19	0.19	-79.004	-19.123	163.952	-134.283	-259.153	181.672	-118.397	-256.641	209.613	-46.816	-153.158	-8.669	-46.816	31.938	-8.669	0	0	0	-134.758	30.163	52.748	-105.688	18.74	167.854	-154.303	-81.654	51.988
20	0.2	-78.997	-19.103	163.95	-134.255	-259.141	181.631	-118.37	-256.632	209.574	-46.816	-153.158	-8.669	-46.816	31.938	-8.669	0	0	0	-134.816	30.203	52.755	-105.759	18.77	167.862	-154.36	-81.614	51.983
21	0.21	-78.971	-19.173	163.989	-134.232	-259.213	181.633	-118.346	-256.709	209.575	-46.816	-153.158	-8.669	-46.816	31.938	-8.669	0	0	0	-134.741	30.09	52.867	-105.708	18.639	167.979	-154.296	-81.725	52.077
22	0.22	-78.923	-19.251	164.152	-134.193	-259.292	181.76	-118.307	-256.792	209.704	-46.816	-153.158	-8.669	-46.816	31.938	-8.669	0	0	0	-134.581	29.943	53.001	-105.572	18.472	168.117	-154.147	-81.87	52.19
23	0.23	-78.828	-19.279	164.368	-134.106	-259.319	181.954	-118.223	-256.821	209.9	-46.816	-153.158	-8.669	-46.816	31.938	-8.669	0	0	0	-134.459	29.896	53.031	-105.461	18.415	168.149	-154.03	-81.916	52.21
24	0.24	-78.742	-19.268	164.452	-134.035	-259.305	182.044	-118.153	-256.807	209.989	-46.816	-153.158	-8.669	-46.816	31.938	-8.669	0	0	0	-134.456	29.929	53.023	-105.456	18.445	168.14	-154.029	-81.882	52.199
25	0.25	-78.733	-19.267	164.423	-134.048	-259.298	182.032	-118.164	-256.799	209.976	-46.816	-153.158	-8.669	-46.816	31.938	-8.669	0	0	0	-134.523	29.944	53.152	-105.522	18.457	168.269	-154.103	-81.867	52.328
26	0.26	-78.776	-19.327	164.426	-134.111	-259.352	182.045	-118.225	-256.854	209.988	-46.816	-153.158	-8.669	-46.816	31.938	-8.669	0	0	0	-134.516	29.897	53.395	-105.521	18.411	168.513	-154.107	-81.912	52.573
27	0.27	-78.785	-19.438	164.47	-134.115	-259.463	182.1	-118.224	-256.966	210.04	-46.816	-153.158	-8.669	-46.816	31.938	-8.669	0	0	0	-134.403	29.817	53.528	-105.411	18.345	168.649	-153.999	-81.991	52.721
28	0.28	-78.728	-19.536	164.5	-134.02	-259.568	182.152	-118.124	-257.067	210.089	-46.816	-153.158	-8.669	-46.816	31.938	-8.669	0	0	0	-134.322	29.767	53.495	-105.329	18.312	168.616	-153.912	-82.042	52.703
